<?xml version="1.0" encoding="iso-8859-1"?>
<!-- Generator: Adobe Illustrator 17.1.0, SVG Export Plug-In . SVG Version: 6.00 Build 0)  -->
<!DOCTYPE svg PUBLIC "-//W3C//DTD SVG 1.1//EN" "http://www.w3.org/Graphics/SVG/1.1/DTD/svg11.dtd">
<svg version="1.1" id="Capa_1" xmlns="http://www.w3.org/2000/svg" xmlns:xlink="http://www.w3.org/1999/xlink" x="0px" y="0px"
	 viewBox="0 0 398.608 398.608" style="enable-background:new 0 0 398.608 398.608;" xml:space="preserve">
<path d="M288.371,264.966c0,4.971-4.029,9-9,9s-9.011-4.029-9.011-9s4.019-9,8.99-9h0.021
	C284.342,255.966,288.371,259.995,288.371,264.966z M199.489,18.001c0.13,0,0.259,0,0.389,0l-5.511,7.979
	c-2.824,4.09-1.799,9.695,2.291,12.52c4.09,2.823,9.695,1.799,12.521-2.291l14.645-21.204c0.471-0.656,0.856-1.38,1.139-2.157
	c0.38-1.041,0.558-2.128,0.542-3.205c-0.016-1.313-0.318-2.568-0.85-3.7c-0.529-1.132-1.299-2.164-2.296-3.016
	c-0.807-0.692-1.74-1.245-2.767-1.619c-0.797-0.292-1.62-0.464-2.446-0.522C145.697-5.578,76.035,27.088,35.316,86.05
	C-5.436,145.055-11.29,221.84,20.04,286.44c1.556,3.207,4.764,5.074,8.104,5.074c1.317,0,2.656-0.291,3.921-0.904
	c4.473-2.169,6.34-7.553,4.17-12.025C7.731,219.812,13.055,149.956,50.127,96.278C84.113,47.068,140.252,18.001,199.489,18.001z
	 M125.509,255.966h-0.021c-4.971,0-8.989,4.029-8.989,9s4.04,9,9.011,9c4.971,0,9-4.029,9-9S130.48,255.966,125.509,255.966z
	 M378.57,112.167c-2.169-4.472-7.552-6.339-12.025-4.17c-4.473,2.169-6.34,7.553-4.17,12.025
	c28.503,58.772,23.179,128.629-13.896,182.308c-33.984,49.211-90.123,78.282-149.36,78.278c-0.13,0-0.258,0-0.388,0l5.51-7.979
	c2.825-4.09,1.799-9.695-2.291-12.52c-4.091-2.824-9.696-1.8-12.52,2.291l-14.63,21.183c-0.515,0.713-0.929,1.508-1.22,2.363
	c-0.337,0.992-0.494,2.021-0.477,3.043c0.018,1.235,0.289,2.419,0.767,3.496c0.578,1.311,1.475,2.497,2.667,3.434
	c0.56,0.441,1.174,0.818,1.833,1.118c1.008,0.461,2.071,0.721,3.138,0.79c5.887,0.523,11.756,0.78,17.604,0.78
	c65.106-0.001,126.822-31.958,164.177-86.049C404.043,253.553,409.899,176.767,378.57,112.167z M212.841,273.965H164.75
	c-4.098,17.885-20.141,31.267-39.25,31.267c-19.646,0-36.052-14.142-39.57-32.78c-6.737-2.225-12.289-6.778-15.297-12.822
	c-1.536-3.089-2.314-6.37-2.314-9.756V123.729c0-13.285,12.162-24.094,27.11-24.094h106.953c32.672,0,45.687,10.957,77.129,37.431
	c2.439,2.053,5.003,4.212,7.712,6.481c3.511,2.941,6.672,5.962,9.729,8.883c1.956,1.868,3.802,3.633,5.64,5.281
	c2.764,2.48,5.278,4.708,7.568,6.737c20.312,17.996,25.771,22.833,26.311,46.852c0.105,4.523,0.065,13.479,0.033,20.674
	l-0.024,5.483c-0.017,3.506-0.035,7.504-0.035,12.415c0,10.205-7.247,19.058-17.507,22.528c-3.498,18.664-19.914,32.83-39.576,32.83
	c-22.203,0-40.267-18.063-40.267-40.266s18.063-40.266,40.267-40.266c17.783,0,32.91,11.587,38.227,27.608
	c0.555-0.79,0.856-1.63,0.856-2.436c0-4.944,0.019-8.97,0.035-12.499l0.024-5.479c0.03-6.711,0.071-15.902-0.028-20.184
	c-0.063-2.815-0.138-5.16-0.32-7.203H178.164c-11.884,0-20.776-6.951-26.431-20.66c-1.895-4.595,0.293-9.856,4.889-11.752
	c4.596-1.895,9.856,0.294,11.752,4.889c3.624,8.787,6.954,9.523,9.79,9.523h129.601c-2.521-2.367-5.651-5.14-9.541-8.586
	c-2.316-2.052-4.859-4.305-7.652-6.812c-2.048-1.837-4.085-3.783-6.056-5.666c-2.848-2.722-5.793-5.535-8.852-8.099
	c-2.721-2.278-5.297-4.447-7.747-6.51c-31.079-26.167-39.432-33.2-65.536-33.2H95.428c-5.214,0-9.11,3.217-9.11,6.094v126.144
	c0,0.589,0.141,1.157,0.429,1.738c0.131,0.264,0.295,0.529,0.491,0.793c5.289-16.071,20.442-27.704,38.262-27.704
	c19.108,0,35.15,13.382,39.25,31.265h48.091c4.971,0,9,4.029,9,9S217.811,273.965,212.841,273.965z M301.626,264.875
	c-0.049-12.236-10.018-22.175-22.264-22.175c-12.278,0-22.267,9.988-22.267,22.266c0,12.277,9.989,22.266,22.267,22.266
	c12.268,0,22.251-9.975,22.264-22.241C301.625,264.952,301.625,264.913,301.626,264.875z M147.764,264.966
	c0-12.277-9.988-22.266-22.264-22.266c-12.196,0-22.134,9.855-22.267,22.02c0.003,0.144,0.003,0.287,0,0.433
	c0.1,12.191,10.051,22.079,22.267,22.079C137.776,287.231,147.764,277.243,147.764,264.966z M113.622,178.961c-4.971,0-9,4.029-9,9
	s4.029,9,9,9h12.623c4.971,0,9-4.029,9-9s-4.029-9-9-9H113.622z"/>
<g>
</g>
<g>
</g>
<g>
</g>
<g>
</g>
<g>
</g>
<g>
</g>
<g>
</g>
<g>
</g>
<g>
</g>
<g>
</g>
<g>
</g>
<g>
</g>
<g>
</g>
<g>
</g>
<g>
</g>
</svg>
